# xmcd
#
# Track frame offsets: 
#        150
#        14229
#        32267
#        53698
#        69730
#        84121
#        101149
#        117339
#        137469
#        147307
#        160703
#        177955
#        199712
#        223041
#        240034
#
# Disc length: 3411 seconds
#
# Revision: 0
# Processed by: cddbd v1.5.2PL0 Copyright (c) Steve Scherf et al.
# Submitted via: ExactAudioCopy v1.0b3
#
DISCID=c40d510f
DTITLE=Jörg Hegemann - Swanee River Boogie
DYEAR=1900
DGENRE=
TTITLE0=Express To Boogieland
TTITLE1=Melody For Rolf
TTITLE2=Swanee River Boogie
TTITLE3=Cherry Red
TTITLE4=The Chicken And The Hawk
TTITLE5=Feelin' Home At Ammons'
TTITLE6=Albert's Joy
TTITLE7=Movin' And Groovin'
TTITLE8=Honey Hush
TTITLE9=Kansas City
TTITLE10=Shake, Rattle And Roll
TTITLE11=Django's Special
TTITLE12=Mr. Beat Comes To Town
TTITLE13=3rd Set After Midnight
TTITLE14=Express From Boogieland
EXTD=
EXTT0=
EXTT1=
EXTT2=
EXTT3=
EXTT4=
EXTT5=
EXTT6=
EXTT7=
EXTT8=
EXTT9=
EXTT10=
EXTT11=
EXTT12=
EXTT13=
EXTT14=
PLAYORDER=
